<svg width="115" height="181" viewBox="0 0 115 181" fill="none" xmlns="http://www.w3.org/2000/svg">
<g clip-path="url(#clip0_189_16)">
<mask id="mask0_189_16" style="mask-type:alpha" maskUnits="userSpaceOnUse" x="16" y="13" width="135" height="155">
<path d="M91.6748 13.7024C89.6268 13.3973 87.5511 13.2762 85.4799 13.3573C83.5889 13.4311 81.699 13.5839 79.808 13.6843C62.2285 14.4621 47.4612 21.3742 35.3118 34.1107C24.3384 45.6115 18.519 59.3662 16.935 75.0194C15.5595 88.6134 19.1435 101.154 25.5156 113C31.1824 123.536 38.526 132.821 46.9358 141.316C55.6592 150.127 65.3481 157.629 76.1586 163.696C78.8279 165.194 81.6497 166.357 84.4639 167.539C85.0656 167.791 85.7236 168.05 86.2921 167.502C86.7589 167.052 86.7341 166.481 86.604 165.931C86.4642 165.342 86.2101 164.786 85.9283 164.249C84.4816 161.493 83.6228 158.549 83.018 155.514C82.3061 151.937 83.5792 148.43 88.481 148.211C101.265 147.638 112.723 143.091 122.919 135.497C137.591 124.566 146.473 109.927 149.323 91.9061C152.343 72.8104 148.054 55.2705 136.381 39.7891C126.19 26.2741 112.763 18.025 96.5622 14.5831C94.9595 14.2426 93.3314 13.9499 91.6748 13.7024Z" fill="#EBEBEB"/>
</mask>
<g mask="url(#mask0_189_16)">
<path d="M168.371 25.0931L154.193 91.8158L135.507 87.6984L135.316 87.657C130.891 86.7168 126.292 86.9908 122.004 88.4529L116.857 90.21L113.236 83.8383C112.944 83.3273 112.598 82.8456 112.205 82.4051C110.718 80.7384 108.671 79.7521 106.442 79.6261C104.213 79.4999 102.068 80.2486 100.401 81.7352L96.5514 85.1698L95.6468 69.6096C95.4889 66.8755 93.849 64.4578 91.3621 63.3001C89.5623 62.4659 87.5452 62.3772 85.6799 63.0582C83.8148 63.7384 82.3281 65.1046 81.4911 66.9031L74.5019 81.9271L74.3964 71.4196C74.3645 68.4009 72.7 65.6248 70.0535 64.1769C68.0929 63.1026 65.8349 62.8564 63.6924 63.4833C61.5492 64.1092 59.7782 65.5307 58.7051 67.4888L54.1548 75.7932L53.5221 70.0688C53.1236 66.4786 50.483 63.5635 46.9496 62.8128L42.0542 61.7728C39.5457 61.2399 37.0796 62.8403 36.5466 65.3488C36.0137 67.8574 37.6161 70.3222 40.1247 70.8551L44.3631 71.7556L46.2168 88.516C46.5564 91.5658 49.3161 93.7772 52.3714 93.4392C54.1753 93.2396 55.7731 92.1685 56.6436 90.5784L65.1438 75.0666L65.3793 98.4201C65.3946 99.9079 65.9874 101.301 67.0516 102.344C67.8162 103.094 68.7597 103.596 69.7837 103.813C70.1816 103.898 70.5934 103.94 71.0102 103.935C73.1401 103.913 75.1001 102.652 76.0055 100.715L86.8025 77.5076L87.5031 89.5446C87.617 91.5251 88.4975 93.343 89.9795 94.663C91.4618 95.9813 93.3693 96.6438 95.3503 96.5312C97.0172 96.4354 98.622 95.7692 99.8685 94.6577L105.729 89.4281L108.782 94.7972C110.986 98.6684 115.642 100.434 119.858 98.9966L125.005 97.2405C127.742 96.3062 130.636 96.135 133.507 96.7659L152.263 100.898L134.807 183.077L-4.9468 153.386L28.6176 -4.59802L168.371 25.0931Z" fill="#EBEBEB"/>
</g>
</g>
<defs>
<clipPath id="clip0_189_16">
<rect width="136.009" height="155.856" fill="white" transform="translate(32.3892) rotate(11.9944)"/>
</clipPath>
</defs>
</svg>
