<svg width="111" height="40" viewBox="0 0 111 40" fill="none" xmlns="http://www.w3.org/2000/svg">
<path d="M58.9116 16.4189C58.8834 15.666 58.7509 15.0041 58.5143 14.4324C58.277 13.8614 57.9633 13.387 57.5732 13.0107C57.1827 12.6341 56.7369 12.3558 56.2351 12.1741C55.7332 11.9932 55.2172 11.9024 54.6878 11.9024C53.6005 11.9024 52.6594 12.2994 51.8649 13.094C51.0703 13.8886 50.6168 14.9969 50.5058 16.4189H58.9116ZM50.3386 19.8478C50.4222 21.4097 50.8751 22.65 51.6977 23.5701C52.5197 24.49 53.6005 24.95 54.9386 24.95C55.8306 24.95 56.6179 24.7481 57.3014 24.3438C57.9842 23.94 58.4235 23.3752 58.6189 22.65H64.2227C63.5811 24.769 62.4663 26.4001 60.8771 27.5428C59.2879 28.6863 57.3916 29.2575 55.1897 29.2575C48.3311 29.2575 44.902 25.5217 44.902 18.05C44.902 16.4608 45.1246 15.0251 45.571 13.7424C46.0168 12.4601 46.6649 11.3586 47.5156 10.4385C48.3658 9.51837 49.404 8.81462 50.6313 8.32649C51.8576 7.83909 53.2659 7.59479 54.855 7.59479C58.0334 7.59479 60.4379 8.61296 62.069 10.6476C63.7001 12.683 64.5154 15.7498 64.5154 19.8478H50.3386Z" fill="#00070F"/>
<path d="M78.9008 18.6352C78.6218 18.9142 78.2176 19.1371 77.6882 19.3043C77.1584 19.4717 76.3918 19.6534 75.3881 19.8478C73.8264 20.1553 72.7535 20.5453 72.1681 21.0192C71.5826 21.4934 71.2899 22.1762 71.2899 23.0679C71.2899 24.6019 72.168 25.368 73.9244 25.368C74.621 25.368 75.2691 25.25 75.869 25.0129C76.4679 24.7761 76.9838 24.4554 77.4162 24.0511C77.8482 23.6473 78.1964 23.1727 78.4619 22.6289C78.7264 22.0854 78.8589 21.5071 78.8589 20.8935L78.9008 18.6352ZM79.2772 28.7138C79.11 28.1845 78.9982 27.5709 78.9428 26.8738C78.3012 27.599 77.4509 28.1773 76.3918 28.6093C75.3319 29.041 74.1054 29.2576 72.7116 29.2576C70.3418 29.2576 68.6061 28.7348 67.5051 27.6894C66.4033 26.6438 65.8533 25.2847 65.8533 23.6119C65.8533 22.1343 66.0899 20.9561 66.5643 20.0779C67.0379 19.2 67.6933 18.5097 68.5298 18.0079C69.366 17.506 70.3628 17.1369 71.5199 16.8998C72.6764 16.663 73.9382 16.4469 75.3042 16.2512C76.6701 16.0568 77.5902 15.7988 78.0646 15.4778C78.5382 15.1576 78.7753 14.6348 78.7753 13.9096C78.7753 13.2403 78.4619 12.7177 77.8345 12.3414C77.2073 11.9648 76.3636 11.7767 75.3042 11.7767C74.0497 11.7767 73.1506 12.0557 72.607 12.6132C72.0637 13.1712 71.7218 13.9096 71.5826 14.8297H66.5223C66.5498 13.7706 66.7242 12.7948 67.0451 11.9024C67.3653 11.0103 67.8814 10.2439 68.5924 9.60228C69.3034 8.96116 70.23 8.46653 71.3732 8.11767C72.5162 7.76928 73.91 7.59485 75.5553 7.59485C77.1719 7.59485 78.5455 7.77651 79.6745 8.13839C80.8037 8.50123 81.7094 9.02381 82.3929 9.7066C83.0757 10.3901 83.5703 11.2404 83.8775 12.2576C84.184 13.2757 84.3374 14.4257 84.3374 15.7079V28.7138H79.2772Z" fill="#00070F"/>
<path d="M97.9299 7.59528C97.3709 7.59528 96.8264 7.62419 96.2988 7.6796C95.7687 7.73502 95.2459 7.86753 94.7303 8.07473C94.2123 8.28434 93.7112 8.5855 93.2245 8.97581C92.7354 9.36611 92.268 9.90821 91.8223 10.6069V8.13737H86.7218V28.7128H92.1572V18.0083C92.1572 14.6907 93.8172 13.0309 97.1348 13.0309C97.4095 13.0309 97.6817 13.0427 97.9564 13.0692V7.59528H97.9299Z" fill="#00070F"/>
<path d="M110.35 2.6322V28.7129H104.912V13.1536H100.339V7.4072C101.059 7.36624 101.691 7.27975 102.235 7.14964C103.045 6.95425 103.708 6.65309 104.223 6.24856C104.738 5.84621 105.129 5.34267 105.394 4.74275C105.659 4.145 105.832 3.44149 105.917 2.6322H110.35Z" fill="#00070F"/>
<mask id="mask0_2037_332" style="mask-type:alpha" maskUnits="userSpaceOnUse" x="0" y="0" width="35" height="40">
<path d="M15.781 0.280931C15.2449 0.313938 14.7117 0.395132 14.1906 0.527402C13.7148 0.648108 13.2435 0.788812 12.7691 0.916264C8.35069 2.06165 4.97646 4.61237 2.58041 8.50027C0.416133 12.0111 -0.318945 15.8161 0.122921 19.8746C0.506723 23.3992 2.09204 26.3889 4.34739 29.0521C6.35314 31.4207 8.7169 33.3814 11.3086 35.084C13.9969 36.85 16.8596 38.2318 19.9296 39.1888C20.6875 39.4249 21.4662 39.568 22.2439 39.7162C22.4102 39.7477 22.5911 39.7781 22.7058 39.6082C22.8 39.469 22.7629 39.3251 22.7003 39.1926C22.633 39.0507 22.5386 38.9232 22.4381 38.8021C21.9225 38.1807 21.546 37.4798 21.2289 36.7421C20.8554 35.8726 20.9894 34.9137 22.2213 34.5937C25.4341 33.7589 28.0961 31.9871 30.2737 29.5096C33.4072 25.9441 34.8716 21.7495 34.6234 17.0217C34.3603 12.0121 32.3264 7.79145 28.5303 4.49143C25.216 1.61062 21.3645 0.240936 17.0685 0.240936C16.6435 0.240936 16.2146 0.254428 15.781 0.280931Z" fill="white"/>
</mask>
<g mask="url(#mask0_2037_332)">
<path d="M35.8548 -0.963715L35.8541 16.7362L30.8911 16.6988L30.8405 16.6985C29.667 16.6985 28.5148 17.0161 27.5058 17.6184L26.2947 18.3419L25.0324 16.92C24.9307 16.806 24.817 16.7024 24.6934 16.6118C24.2263 16.269 23.6538 16.129 23.0816 16.2172C22.5092 16.3053 22.0051 16.6111 21.6625 17.0782L20.8708 18.1576L19.8025 14.257C19.6151 13.5715 19.0687 13.0463 18.3753 12.8865C17.8737 12.7719 17.3571 12.8581 16.9205 13.1316C16.484 13.4048 16.1804 13.8317 16.065 14.3333L15.1015 18.5236L14.5083 15.8623C14.3375 15.0978 13.7656 14.4829 13.016 14.2582C12.4607 14.0912 11.8745 14.1505 11.3647 14.4251C10.8546 14.6995 10.4819 15.1559 10.3152 15.7107L9.60831 18.0639L9.13922 16.6451C8.84456 15.7553 8.01745 15.1578 7.08047 15.1578H5.78234C5.11713 15.1578 4.57769 15.697 4.57769 16.3624C4.57769 17.0279 5.11713 17.5671 5.78234 17.5671H6.90628L8.28006 21.7212C8.53063 22.477 9.35003 22.8895 10.107 22.6389C10.554 22.491 10.9016 22.133 11.0368 21.6824L12.3573 17.2869L13.6759 23.2017C13.76 23.5785 13.9855 23.9002 14.3117 24.1074C14.5462 24.2565 14.8126 24.3331 15.0842 24.3331C15.1897 24.3331 15.2964 24.3216 15.402 24.298C15.9412 24.1775 16.3705 23.7518 16.4958 23.2111L17.9842 16.7385L18.8109 19.7559C18.9465 20.2525 19.2679 20.6664 19.7151 20.9216C20.1623 21.1762 20.6819 21.2415 21.1785 21.1061C21.5963 20.9919 21.9675 20.7363 22.2239 20.3869L23.429 18.7436L24.493 19.9417C25.2608 20.8054 26.5373 21.0025 27.5297 20.4103L28.7408 19.687C29.3851 19.3023 30.11 19.1028 30.8726 19.1081L35.8541 19.1455L35.8548 40.9454H-1.20459V-0.963715H35.8548Z" fill="#D2D9D6"/>
</g>
</svg>
